<svg xmlns="http://www.w3.org/2000/svg" viewBox="0 0 21 21">
    <path fill="currentColor" fill-rule="evenodd" d="M20.84 10.932a1.84 1.84 0 0 0-2.43-.93l-.884.399-2.27-5.071.887-.395a1.84 1.84 0 0 0 .926-2.43c-.414-.926-1.5-1.343-2.43-.926l-.882.395-.395-.884c-.414-.93-1.504-1.344-2.43-.93a1.84 1.84 0 0 0-.93 2.43l.398.887-5.07 2.267-.395-.888A1.839 1.839 0 0 0 1.58 6.36l.393.884-.883.394a1.842 1.842 0 0 0-.93 2.43 1.842 1.842 0 0 0 2.43.93l.887-.399 2.267 5.071-.888.395a1.84 1.84 0 0 0 1.504 3.359l.884-.398.394.887c.415.926 1.503 1.34 2.43.926.926-.414 1.343-1.5.926-2.429l-.395-.884 5.072-2.267.394.884c.414.926 1.503 1.344 2.43.926.926-.41 1.343-1.5.926-2.426l-.395-.887.884-.394c.93-.414 1.344-1.5.93-2.43zM8.705 13.731L6.462 8.707l5.02-2.245 2.249 5.02-5.025 2.249z"/>
</svg>
