<svg xmlns="http://www.w3.org/2000/svg" viewBox="0 0 21 21">
    <path fill="currentColor" fill-rule="evenodd" d="M14.098 20.884c-.102.039-.207.084-.31.101-.404.075-.663-.14-.666-.562a88.663 88.663 0 0 1 .01-2.352c.011-.902-.01-1.793-.68-2.537.4-.074.755-.125 1.1-.205 2.296-.542 3.49-2.028 3.64-4.492.079-1.257-.139-2.406-.951-3.394-.061-.072-.061-.23-.035-.331.217-.815.154-1.613-.1-2.414-.06-.2-.165-.26-.357-.247-.673.038-1.291.28-1.837.654-.522.36-1.014.44-1.637.295-1.374-.318-2.755-.226-4.126.099-.154.038-.362-.013-.505-.099-.644-.384-1.286-.762-2.029-.91-.575-.117-.624-.087-.775.481-.192.718-.212 1.435-.015 2.159.026.104-.003.274-.07.35-1.52 1.74-.97 5.026.053 6.286.798.977 1.855 1.417 3.03 1.647.207.038.41.067.616.103-.177.471-.334.915-.514 1.35-.034.085-.145.154-.238.193-1.153.458-2.143.119-2.801-.953-.352-.572-.804-1-1.48-1.123-.022-.003-.045-.017-.062-.014-.183.05-.363.1-.543.152.102.145.174.339.31.425.573.373.945.902 1.188 1.524.386.98 1.135 1.415 2.108 1.5.476.04.955.007 1.478.007 0 .607.02 1.3-.01 1.988-.016.373-.38.522-.818.37-1.155-.405-2.23-.988-3.155-1.807C.569 16.172-.723 12.435.392 8.058c1.11-4.36 3.997-7.034 8.32-7.874C14.69-.976 20.355 3.49 20.95 9.714c.466 4.907-2.35 9.5-6.852 11.17zM8.46 15.493a.156.156 0 0 1-.009.023l.032.006c.009 0 .015.016-.023-.03zm-2.706 1.94c.093.06.183.135.285.168.038.011.104-.075.226-.167-.168-.066-.267-.122-.371-.137-.041-.003-.093.089-.14.137zm.854.15c.011.065.136.146.209.143.073 0 .142-.096.212-.152-.064-.06-.128-.12-.325-.301-.044.125-.114.23-.096.31zm1.045-.257c-.09.022-.163.105-.244.161.046.06.096.12.171.215l.244-.232c-.058-.052-.128-.155-.171-.144zm-2.592-.363c.049.096.124.176.225.31.07-.113.143-.203.131-.22a1.175 1.175 0 0 0-.24-.224c-.006-.003-.125.113-.116.134z"/>
</svg>
