<svg xmlns="http://www.w3.org/2000/svg" viewBox="0 0 23 17">
    <path fill="currentColor" fill-rule="evenodd" d="M23 2.011c-.843.34-1.755.575-2.71.678.976-.53 1.72-1.373 2.078-2.377a9.986 9.986 0 0 1-3.005 1.042C18.508.524 17.28 0 15.924 0c-2.603 0-4.716 1.923-4.716 4.292 0 .338.043.663.12.977C7.404 5.09 3.931 3.384 1.601.785a3.972 3.972 0 0 0-.64 2.16c0 1.487.836 2.803 2.099 3.569a5.001 5.001 0 0 1-2.133-.537v.053c0 2.08 1.628 3.817 3.782 4.214a5.324 5.324 0 0 1-2.132.07c.603 1.706 2.342 2.944 4.407 2.983-1.615 1.15-3.651 1.833-5.861 1.833-.38 0-.751-.02-1.123-.058C2.091 16.292 4.57 17 7.235 17c8.675 0 13.42-6.54 13.42-12.21l-.014-.556A9.08 9.08 0 0 0 23 2.011z"/>
</svg>
